# xmcd
#
# Track frame offsets:
#	150
#	13730
#	27292
#	40875
#	57100
#	69690
#	84342
#	97620
#	116322
#	134635
#	156377
#
# Disc length: 2726 seconds
#
# Revision: 2
# Processed by: cddbd v1.5.2PL0 Copyright (c) Steve Scherf et al.
# Submitted via: audiograbber 1.83.01
#
DISCID=870aa40b
DTITLE=Esther Phillips - Confessin' The Blues
DYEAR=1976
DGENRE=Blues Oldies
TTITLE0=I'm Gettin' 'Long Alright
TTITLE1=I Wonder
TTITLE2=Confessin' The Blues
TTITLE3=Romance In The Dark
TTITLE4=C.C. Rider
TTITLE5=Cherry Red
TTITLE6=In The Evenin'
TTITLE7=I Love Paris
TTITLE8=It Could Happen To You
TTITLE9=Bye Bye Blackbird
TTITLE10=Blow Top Blues - Jelly Jelly Blues - Long John Blues
EXTD=Esther Phillips - Original Album Series (2016) [Box-Set]\n\nMARO\n
EXTT0=
EXTT1=
EXTT2=
EXTT3=
EXTT4=
EXTT5=
EXTT6=
EXTT7=
EXTT8=
EXTT9=
EXTT10=
PLAYORDER=
